<?xml version="1.0" encoding="UTF-8" standalone="no"?>
<!DOCTYPE svg PUBLIC "-//W3C//DTD SVG 1.1//EN" "http://www.w3.org/Graphics/SVG/1.1/DTD/svg11.dtd">
<svg width="100%" height="100%" viewBox="0 0 349 349" version="1.1" xmlns="http://www.w3.org/2000/svg" xmlns:xlink="http://www.w3.org/1999/xlink" xml:space="preserve" xmlns:serif="http://www.serif.com/" style="fill-rule:evenodd;clip-rule:evenodd;stroke-linejoin:round;stroke-miterlimit:2;">
    <g id="Logo" transform="matrix(0.181594,0,0,0.322833,0,0)">
        <rect x="0" y="0" width="1920" height="1080" style="fill:none;"/>
        <g transform="matrix(5.5068,0,0,3.09758,-68.4445,-56.022)">
            <g transform="matrix(36,0,0,36,274.995,333.428)">
            </g>
            <text x="98.667px" y="333.428px" style="font-family:'Coolvetica-Regular', 'Coolvetica', sans-serif;font-size:36px;">BookMyCut</text>
        </g>
        <g id="noun-scissors-5108.svg" transform="matrix(0.516134,0.16762,-0.284754,0.27743,960,552.576)">
            <g transform="matrix(1,0,0,1,-600,-600)">
                <clipPath id="_clip1">
                    <rect x="0" y="0" width="1200" height="1200"/>
                </clipPath>
                <g clip-path="url(#_clip1)">
                    <path d="M880.95,760.07C838.012,760.07 798.079,772.562 764.22,793.84L656.29,742.012L723.743,742.012L936.783,266.262L940.334,0.012L624.364,543.212L603.052,543.212L272.872,0.012L262.227,28.403L262.227,262.723L471.697,713.613L528.506,738.476L446.858,791.734L440.713,796.617L441.147,797.109C406.213,773.746 364.241,760.078 319.047,760.078C197.547,760.078 99.087,858.574 99.087,980.048C99.087,1101.55 197.548,1200.01 319.037,1200.01C440.527,1200.01 538.997,1101.56 538.997,980.058C538.997,943.578 529.985,909.269 514.267,878.968L594.201,800.609L689.205,872.523C671.326,904.324 661.017,940.972 661.017,980.053C661.017,1101.55 759.49,1200 880.977,1200C1002.46,1200 1100.95,1101.55 1100.95,980.053C1100.93,858.573 1002.44,760.073 880.957,760.073L880.95,760.07ZM319,1086.41C260.379,1086.41 212.7,1038.7 212.7,980.08C212.7,921.412 260.388,873.75 319,873.75C377.656,873.75 425.36,921.426 425.36,980.08C425.36,1038.7 377.657,1086.41 319,1086.41ZM606.59,734.93C571.332,734.93 542.703,706.297 542.703,671.032C542.703,635.762 571.324,607.134 606.59,607.134C641.871,607.134 670.488,635.767 670.488,671.032C670.488,706.297 641.871,734.93 606.59,734.93ZM880.95,1086.41C822.341,1086.41 774.68,1038.7 774.65,980.08C774.65,921.412 822.349,873.75 880.95,873.75C939.571,873.75 987.29,921.426 987.29,980.08C987.302,1038.7 939.567,1086.41 880.95,1086.41Z" style="fill:rgb(1,1,1);fill-rule:nonzero;"/>
                </g>
            </g>
        </g>
        <g id="calendar-symbol-svgrepo-com.svg" transform="matrix(1.72556,0,0,0.97063,960,478.751)">
            <g transform="matrix(1,0,0,1,-400,-400)">
                <clipPath id="_clip2">
                    <rect x="0" y="0" width="800" height="800"/>
                </clipPath>
                <g clip-path="url(#_clip2)">
                    <g>
                        <g>
                            <path d="M209.132,0L189.041,0C186.478,0 184.046,0.539 181.691,1.304C169.923,5.121 161.225,17.684 161.225,32.755L161.225,100.4C161.225,103.822 161.795,107.055 162.622,110.151C166.163,123.449 176.584,133.155 189.041,133.155L209.132,133.155C224.497,133.155 236.948,118.492 236.948,100.4L236.948,32.755C236.948,14.663 224.497,0 209.132,0Z" style="fill-rule:nonzero;"/>
                            <path d="M604.573,0L584.483,0C569.117,0 556.666,14.663 556.666,32.755L556.666,100.4C556.666,118.492 569.117,133.155 584.483,133.155L604.573,133.155C619.939,133.155 632.39,118.492 632.39,100.4L632.39,32.755C632.383,14.663 619.933,0 604.573,0Z" style="fill-rule:nonzero;"/>
                            <path d="M707.192,81.983L657.449,81.983L657.449,100.4C657.449,132.284 633.724,158.221 604.567,158.221L584.476,158.221C555.319,158.221 531.594,132.284 531.594,100.4L531.594,81.983L262.014,81.983L262.014,100.4C262.014,132.284 238.289,158.221 209.132,158.221L189.041,158.221C159.883,158.221 136.159,132.284 136.159,100.4L136.159,81.983L92.816,81.983C65.206,81.983 42.815,102.975 42.815,128.856L42.815,753.128C42.815,779.058 65.205,800.001 92.816,800.001L707.186,800.001C734.82,800.001 757.185,779.052 757.185,753.128L757.185,128.863C757.191,102.982 734.827,81.983 707.192,81.983ZM691.689,731.195L106.494,730.97L106.494,227.677L691.689,227.677L691.689,731.195Z" style="fill-rule:nonzero;"/>
                        </g>
                    </g>
                </g>
            </g>
        </g>
    </g>
</svg>
